<svg width="45" height="45" viewBox="0 0 45 45" fill="none" xmlns="http://www.w3.org/2000/svg">
<path fill-rule="evenodd" clip-rule="evenodd" d="M8 0C3.58172 0 0 3.58172 0 8V37C0 41.4183 3.58172 45 8 45H37C41.4183 45 45 41.4183 45 37V8C45 3.58172 41.4183 0 37 0H8ZM17.4822 12.3094C19.3174 7.89688 25.5682 7.89688 27.4035 12.3094C28.1772 14.1696 29.9265 15.4405 31.9348 15.6015C36.6984 15.9834 38.63 21.9283 35.0006 25.0372C33.4705 26.3479 32.8023 28.4044 33.2698 30.3641C34.3786 35.0126 29.3217 38.6867 25.2433 36.1957C23.524 35.1455 21.3616 35.1455 19.6423 36.1957C15.564 38.6867 10.507 35.0126 11.6158 30.3641C12.0833 28.4044 11.4151 26.3479 9.88503 25.0372C6.25563 21.9283 8.18722 15.9834 12.9509 15.6015C14.9591 15.4405 16.7085 14.1696 17.4822 12.3094ZM28.7303 24.0447C28.7303 27.5233 25.9103 30.3433 22.4317 30.3433C18.953 30.3433 16.133 27.5233 16.133 24.0447C16.133 20.566 18.953 17.746 22.4317 17.746C25.9103 17.746 28.7303 20.566 28.7303 24.0447Z" fill="#F0F0F0"/>
</svg>
